<svg width="265" height="42" viewBox="0 0 265 42" fill="none" xmlns="http://www.w3.org/2000/svg">
<path d="M35.7545 29.387C34.4667 28.7431 32.4635 27.5269 30.3887 26.096C28.7431 26.4537 26.7399 26.096 24.7366 24.5935C24.2358 24.2358 23.735 23.8065 23.2342 23.3057C22.0179 22.0895 20.7301 20.4439 19.2992 18.6553C19.1561 18.5122 19.0846 18.3691 18.9415 18.2261C18.5838 17.7968 18.6553 17.0813 19.0846 16.7236C19.5854 16.2943 20.3009 16.3659 20.7301 16.8667C20.8732 17.0098 20.9448 17.1529 21.0878 17.296C22.948 19.5854 24.6651 21.8033 26.096 22.8049C28.7431 24.7366 30.8179 24.0212 31.8911 22.7334C32.7497 21.6602 33.0358 20.0862 31.8196 19.013C30.1025 17.4391 28.457 15.4358 26.8114 13.4325C24.9513 11.1431 22.948 8.78213 21.2309 7.42278C20.2293 6.70733 18.2261 5.77725 16.0797 4.84716C15.5789 4.63253 14.5773 4.20326 14.5773 4.20326L10.4277 0.268293C10.0699 -0.0894311 9.56912 -0.0894311 9.28294 0.268293L0.268293 9.2114C-0.0894311 9.56912 -0.0894311 10.0699 0.268293 10.3561L4.2748 14.3626C6.27806 18.5838 8.85368 23.5919 10.9285 26.0244C15.1496 30.961 29.1724 34.6814 33.3936 35.6115C37.6863 36.47 39.4749 31.2472 35.7545 29.387Z" fill="#EBCE83"/>
<path d="M67.8066 30.7464L63.8001 26.7399C61.7969 22.5187 59.2213 17.5106 57.1465 15.0781C52.9253 10.213 38.831 6.42115 34.6098 5.56261C30.3887 4.70407 28.5285 9.92685 32.3204 11.787C33.6082 12.4309 35.6115 13.6472 37.6863 15.0781C39.3318 14.7204 41.335 15.0781 43.3383 16.5805C43.8391 16.9382 44.3399 17.3675 44.8407 17.8683C46.057 19.0846 47.3448 20.7301 48.7757 22.5187C48.9188 22.6618 48.9903 22.8049 49.1334 22.948C49.4912 23.3773 49.4196 24.0927 48.9903 24.4505C48.4895 24.8797 47.7741 24.8082 47.3448 24.3074C47.2017 24.1643 47.1302 24.0212 46.9871 23.8781C45.1269 21.5887 43.4098 19.3708 41.9789 18.3691C39.3318 16.4374 37.257 17.1529 36.1838 18.4407C35.3253 19.5139 35.0391 21.0878 36.2554 22.161C37.9724 23.735 39.618 25.7383 41.2635 27.7415C43.1237 30.031 45.1269 32.3919 46.844 33.7513C47.8456 34.4667 49.8489 35.3968 51.9952 36.3269C52.496 36.5415 53.4977 36.9708 53.4977 36.9708L57.5042 40.9773C57.8619 41.335 58.3627 41.335 58.6489 40.9773L67.592 32.0342C68.0928 31.6049 68.0928 31.1041 67.8066 30.7464Z" fill="#EBCE83"/>
<path d="M85.448 16.032V30H89.216V16.032H94.352V12.864H80.312V16.032H85.448ZM96.32 23.808C96.32 23.312 96.368 22.824 96.464 22.344C96.56 21.864 96.72 21.44 96.944 21.072C97.184 20.704 97.496 20.408 97.88 20.184C98.264 19.944 98.744 19.824 99.32 19.824C99.896 19.824 100.376 19.944 100.76 20.184C101.16 20.408 101.472 20.704 101.696 21.072C101.936 21.44 102.104 21.864 102.2 22.344C102.296 22.824 102.344 23.312 102.344 23.808C102.344 24.304 102.296 24.792 102.2 25.272C102.104 25.736 101.936 26.16 101.696 26.544C101.472 26.912 101.16 27.208 100.76 27.432C100.376 27.656 99.896 27.768 99.32 27.768C98.744 27.768 98.264 27.656 97.88 27.432C97.496 27.208 97.184 26.912 96.944 26.544C96.72 26.16 96.56 25.736 96.464 25.272C96.368 24.792 96.32 24.304 96.32 23.808ZM92.912 23.808C92.912 24.8 93.064 25.696 93.368 26.496C93.672 27.296 94.104 27.984 94.664 28.56C95.224 29.12 95.896 29.552 96.68 29.856C97.464 30.16 98.344 30.312 99.32 30.312C100.296 30.312 101.176 30.16 101.96 29.856C102.76 29.552 103.44 29.12 104 28.56C104.56 27.984 104.992 27.296 105.296 26.496C105.6 25.696 105.752 24.8 105.752 23.808C105.752 22.816 105.6 21.92 105.296 21.12C104.992 20.304 104.56 19.616 104 19.056C103.44 18.48 102.76 18.04 101.96 17.736C101.176 17.416 100.296 17.256 99.32 17.256C98.344 17.256 97.464 17.416 96.68 17.736C95.896 18.04 95.224 18.48 94.664 19.056C94.104 19.616 93.672 20.304 93.368 21.12C93.064 21.92 92.912 22.816 92.912 23.808ZM108.064 12.864V30H111.472V12.864H108.064ZM117.179 23.808C117.179 23.312 117.227 22.824 117.323 22.344C117.419 21.864 117.579 21.44 117.803 21.072C118.043 20.704 118.355 20.408 118.739 20.184C119.123 19.944 119.603 19.824 120.179 19.824C120.755 19.824 121.235 19.944 121.619 20.184C122.019 20.408 122.331 20.704 122.555 21.072C122.795 21.44 122.963 21.864 123.059 22.344C123.155 22.824 123.203 23.312 123.203 23.808C123.203 24.304 123.155 24.792 123.059 25.272C122.963 25.736 122.795 26.16 122.555 26.544C122.331 26.912 122.019 27.208 121.619 27.432C121.235 27.656 120.755 27.768 120.179 27.768C119.603 27.768 119.123 27.656 118.739 27.432C118.355 27.208 118.043 26.912 117.803 26.544C117.579 26.16 117.419 25.736 117.323 25.272C117.227 24.792 117.179 24.304 117.179 23.808ZM113.771 23.808C113.771 24.8 113.923 25.696 114.227 26.496C114.531 27.296 114.963 27.984 115.523 28.56C116.083 29.12 116.755 29.552 117.539 29.856C118.323 30.16 119.203 30.312 120.179 30.312C121.155 30.312 122.035 30.16 122.819 29.856C123.619 29.552 124.299 29.12 124.859 28.56C125.419 27.984 125.851 27.296 126.155 26.496C126.459 25.696 126.611 24.8 126.611 23.808C126.611 22.816 126.459 21.92 126.155 21.12C125.851 20.304 125.419 19.616 124.859 19.056C124.299 18.48 123.619 18.04 122.819 17.736C122.035 17.416 121.155 17.256 120.179 17.256C119.203 17.256 118.323 17.416 117.539 17.736C116.755 18.04 116.083 18.48 115.523 19.056C114.963 19.616 114.531 20.304 114.227 21.12C113.923 21.92 113.771 22.816 113.771 23.808ZM128.827 17.592V30H132.235V23.496C132.235 22.232 132.443 21.328 132.859 20.784C133.275 20.224 133.947 19.944 134.875 19.944C135.691 19.944 136.259 20.2 136.579 20.712C136.899 21.208 137.059 21.968 137.059 22.992V30H140.467V22.368C140.467 21.6 140.395 20.904 140.251 20.28C140.123 19.64 139.891 19.104 139.555 18.672C139.219 18.224 138.755 17.88 138.163 17.64C137.587 17.384 136.843 17.256 135.931 17.256C135.211 17.256 134.507 17.424 133.819 17.76C133.131 18.08 132.571 18.6 132.139 19.32H132.067V17.592H128.827ZM148.838 27.072C148.31 27.072 147.87 26.96 147.518 26.736C147.166 26.512 146.878 26.224 146.654 25.872C146.446 25.52 146.294 25.128 146.198 24.696C146.118 24.248 146.078 23.8 146.078 23.352C146.078 22.888 146.126 22.448 146.222 22.032C146.334 21.6 146.502 21.224 146.726 20.904C146.966 20.568 147.254 20.304 147.59 20.112C147.942 19.92 148.358 19.824 148.838 19.824C149.398 19.824 149.862 19.928 150.23 20.136C150.598 20.344 150.894 20.624 151.118 20.976C151.342 21.328 151.502 21.736 151.598 22.2C151.694 22.648 151.742 23.128 151.742 23.64C151.742 24.088 151.678 24.52 151.55 24.936C151.438 25.336 151.262 25.696 151.022 26.016C150.782 26.336 150.478 26.592 150.11 26.784C149.742 26.976 149.318 27.072 148.838 27.072ZM154.982 29.208V17.592H151.742V19.248H151.694C151.278 18.528 150.758 18.016 150.134 17.712C149.526 17.408 148.814 17.256 147.998 17.256C147.134 17.256 146.366 17.424 145.694 17.76C145.038 18.096 144.486 18.552 144.038 19.128C143.59 19.688 143.246 20.344 143.006 21.096C142.782 21.832 142.67 22.6 142.67 23.4C142.67 24.248 142.766 25.056 142.958 25.824C143.166 26.576 143.486 27.24 143.918 27.816C144.35 28.376 144.902 28.824 145.574 29.16C146.246 29.48 147.046 29.64 147.974 29.64C148.726 29.64 149.438 29.488 150.11 29.184C150.798 28.864 151.326 28.376 151.694 27.72H151.742V29.352C151.758 30.232 151.542 30.96 151.094 31.536C150.662 32.112 149.966 32.4 149.006 32.4C148.398 32.4 147.862 32.272 147.398 32.016C146.934 31.776 146.622 31.336 146.462 30.696H143.078C143.126 31.4 143.318 32 143.654 32.496C144.006 33.008 144.438 33.424 144.95 33.744C145.478 34.064 146.054 34.296 146.678 34.44C147.318 34.6 147.942 34.68 148.55 34.68C149.974 34.68 151.11 34.488 151.958 34.104C152.806 33.72 153.454 33.248 153.902 32.688C154.35 32.144 154.638 31.552 154.766 30.912C154.91 30.272 154.982 29.704 154.982 29.208ZM169.51 18.624H173.158C173.046 17.632 172.774 16.752 172.342 15.984C171.91 15.216 171.358 14.576 170.686 14.064C170.03 13.536 169.278 13.136 168.43 12.864C167.598 12.592 166.71 12.456 165.766 12.456C164.454 12.456 163.27 12.688 162.214 13.152C161.174 13.616 160.294 14.256 159.574 15.072C158.854 15.888 158.302 16.848 157.918 17.952C157.534 19.04 157.342 20.224 157.342 21.504C157.342 22.752 157.534 23.92 157.918 25.008C158.302 26.08 158.854 27.016 159.574 27.816C160.294 28.616 161.174 29.248 162.214 29.712C163.27 30.16 164.454 30.384 165.766 30.384C166.822 30.384 167.79 30.224 168.67 29.904C169.55 29.584 170.318 29.12 170.974 28.512C171.63 27.904 172.158 27.168 172.558 26.304C172.958 25.44 173.206 24.472 173.302 23.4H169.654C169.51 24.552 169.11 25.48 168.454 26.184C167.814 26.888 166.918 27.24 165.766 27.24C164.918 27.24 164.198 27.08 163.606 26.76C163.014 26.424 162.534 25.984 162.166 25.44C161.798 24.896 161.526 24.288 161.35 23.616C161.19 22.928 161.11 22.224 161.11 21.504C161.11 20.752 161.19 20.024 161.35 19.32C161.526 18.616 161.798 17.992 162.166 17.448C162.534 16.888 163.014 16.448 163.606 16.128C164.198 15.792 164.918 15.624 165.766 15.624C166.23 15.624 166.67 15.704 167.086 15.864C167.518 16.008 167.902 16.216 168.238 16.488C168.574 16.76 168.854 17.08 169.078 17.448C169.302 17.8 169.446 18.192 169.51 18.624ZM175.371 21.408C175.419 20.608 175.619 19.944 175.971 19.416C176.323 18.888 176.771 18.464 177.315 18.144C177.859 17.824 178.467 17.6 179.139 17.472C179.827 17.328 180.515 17.256 181.203 17.256C181.827 17.256 182.459 17.304 183.099 17.4C183.739 17.48 184.323 17.648 184.851 17.904C185.379 18.16 185.811 18.52 186.147 18.984C186.483 19.432 186.651 20.032 186.651 20.784V27.24C186.651 27.8 186.683 28.336 186.747 28.848C186.811 29.36 186.923 29.744 187.083 30H183.627C183.563 29.808 183.507 29.616 183.459 29.424C183.427 29.216 183.403 29.008 183.387 28.8C182.843 29.36 182.203 29.752 181.467 29.976C180.731 30.2 179.979 30.312 179.211 30.312C178.619 30.312 178.067 30.24 177.555 30.096C177.043 29.952 176.595 29.728 176.211 29.424C175.827 29.12 175.523 28.736 175.299 28.272C175.091 27.808 174.987 27.256 174.987 26.616C174.987 25.912 175.107 25.336 175.347 24.888C175.603 24.424 175.923 24.056 176.307 23.784C176.707 23.512 177.155 23.312 177.651 23.184C178.163 23.04 178.675 22.928 179.187 22.848C179.699 22.768 180.203 22.704 180.699 22.656C181.195 22.608 181.635 22.536 182.019 22.44C182.403 22.344 182.707 22.208 182.931 22.032C183.155 21.84 183.259 21.568 183.243 21.216C183.243 20.848 183.179 20.56 183.051 20.352C182.939 20.128 182.779 19.96 182.571 19.848C182.379 19.72 182.147 19.64 181.875 19.608C181.619 19.56 181.339 19.536 181.035 19.536C180.363 19.536 179.835 19.68 179.451 19.968C179.067 20.256 178.843 20.736 178.779 21.408H175.371ZM183.243 23.928C183.099 24.056 182.915 24.16 182.691 24.24C182.483 24.304 182.251 24.36 181.995 24.408C181.755 24.456 181.499 24.496 181.227 24.528C180.955 24.56 180.683 24.6 180.411 24.648C180.155 24.696 179.899 24.76 179.643 24.84C179.403 24.92 179.187 25.032 178.995 25.176C178.819 25.304 178.675 25.472 178.563 25.68C178.451 25.888 178.395 26.152 178.395 26.472C178.395 26.776 178.451 27.032 178.563 27.24C178.675 27.448 178.827 27.616 179.019 27.744C179.211 27.856 179.435 27.936 179.691 27.984C179.947 28.032 180.211 28.056 180.483 28.056C181.155 28.056 181.675 27.944 182.043 27.72C182.411 27.496 182.683 27.232 182.859 26.928C183.035 26.608 183.139 26.288 183.171 25.968C183.219 25.648 183.243 25.392 183.243 25.2V23.928ZM189.296 17.592V30H192.704V24.408C192.704 23.848 192.76 23.328 192.872 22.848C192.984 22.368 193.168 21.952 193.424 21.6C193.696 21.232 194.048 20.944 194.48 20.736C194.912 20.528 195.44 20.424 196.064 20.424C196.272 20.424 196.488 20.44 196.712 20.472C196.936 20.488 197.128 20.512 197.288 20.544V17.376C197.016 17.296 196.768 17.256 196.544 17.256C196.112 17.256 195.696 17.32 195.296 17.448C194.896 17.576 194.52 17.76 194.168 18C193.816 18.224 193.504 18.504 193.232 18.84C192.96 19.16 192.744 19.512 192.584 19.896H192.536V17.592H189.296ZM202.128 15.672V12.864H198.72V15.672H202.128ZM198.72 17.592V30H202.128V17.592H198.72ZM205.172 12.864V30H208.94V24.48L211.1 22.296L216.26 30H220.988L213.644 19.632L220.34 12.864H215.636L208.94 19.968V12.864H205.172ZM230.484 22.464H224.94C224.956 22.224 225.004 21.952 225.084 21.648C225.18 21.344 225.332 21.056 225.54 20.784C225.764 20.512 226.052 20.288 226.404 20.112C226.772 19.92 227.228 19.824 227.772 19.824C228.604 19.824 229.22 20.048 229.62 20.496C230.036 20.944 230.324 21.6 230.484 22.464ZM224.94 24.624H233.892C233.956 23.664 233.876 22.744 233.652 21.864C233.428 20.984 233.06 20.2 232.548 19.512C232.052 18.824 231.412 18.28 230.628 17.88C229.844 17.464 228.924 17.256 227.868 17.256C226.924 17.256 226.06 17.424 225.276 17.76C224.508 18.096 223.844 18.56 223.284 19.152C222.724 19.728 222.292 20.416 221.988 21.216C221.684 22.016 221.532 22.88 221.532 23.808C221.532 24.768 221.676 25.648 221.964 26.448C222.268 27.248 222.692 27.936 223.236 28.512C223.78 29.088 224.444 29.536 225.228 29.856C226.012 30.16 226.892 30.312 227.868 30.312C229.276 30.312 230.476 29.992 231.468 29.352C232.46 28.712 233.196 27.648 233.676 26.16H230.676C230.564 26.544 230.26 26.912 229.764 27.264C229.268 27.6 228.676 27.768 227.988 27.768C227.028 27.768 226.292 27.52 225.78 27.024C225.268 26.528 224.988 25.728 224.94 24.624ZM235.913 17.592V30H239.321V24.408C239.321 23.848 239.377 23.328 239.489 22.848C239.601 22.368 239.785 21.952 240.041 21.6C240.313 21.232 240.665 20.944 241.097 20.736C241.529 20.528 242.057 20.424 242.681 20.424C242.889 20.424 243.105 20.44 243.329 20.472C243.553 20.488 243.745 20.512 243.905 20.544V17.376C243.633 17.296 243.385 17.256 243.161 17.256C242.729 17.256 242.313 17.32 241.913 17.448C241.513 17.576 241.137 17.76 240.785 18C240.433 18.224 240.121 18.504 239.849 18.84C239.577 19.16 239.361 19.512 239.201 19.896H239.153V17.592H235.913ZM248.961 15.672V12.864H245.553V15.672H248.961ZM243.513 31.44V34.248C243.833 34.312 244.193 34.344 244.593 34.344C245.457 34.344 246.169 34.264 246.729 34.104C247.289 33.96 247.729 33.728 248.049 33.408C248.385 33.104 248.617 32.72 248.745 32.256C248.889 31.792 248.961 31.24 248.961 30.6V17.592H245.553V30.432C245.553 30.896 245.417 31.192 245.145 31.32C244.889 31.464 244.585 31.536 244.233 31.536C243.929 31.536 243.689 31.504 243.513 31.44ZM251.777 21.408C251.825 20.608 252.025 19.944 252.377 19.416C252.729 18.888 253.177 18.464 253.721 18.144C254.265 17.824 254.873 17.6 255.545 17.472C256.233 17.328 256.921 17.256 257.609 17.256C258.233 17.256 258.865 17.304 259.505 17.4C260.145 17.48 260.729 17.648 261.257 17.904C261.785 18.16 262.217 18.52 262.553 18.984C262.889 19.432 263.057 20.032 263.057 20.784V27.24C263.057 27.8 263.089 28.336 263.153 28.848C263.217 29.36 263.329 29.744 263.489 30H260.033C259.969 29.808 259.913 29.616 259.865 29.424C259.833 29.216 259.809 29.008 259.793 28.8C259.249 29.36 258.609 29.752 257.873 29.976C257.137 30.2 256.385 30.312 255.617 30.312C255.025 30.312 254.473 30.24 253.961 30.096C253.449 29.952 253.001 29.728 252.617 29.424C252.233 29.12 251.929 28.736 251.705 28.272C251.497 27.808 251.393 27.256 251.393 26.616C251.393 25.912 251.513 25.336 251.753 24.888C252.009 24.424 252.329 24.056 252.713 23.784C253.113 23.512 253.561 23.312 254.057 23.184C254.569 23.04 255.081 22.928 255.593 22.848C256.105 22.768 256.609 22.704 257.105 22.656C257.601 22.608 258.041 22.536 258.425 22.44C258.809 22.344 259.113 22.208 259.337 22.032C259.561 21.84 259.665 21.568 259.649 21.216C259.649 20.848 259.585 20.56 259.457 20.352C259.345 20.128 259.185 19.96 258.977 19.848C258.785 19.72 258.553 19.64 258.281 19.608C258.025 19.56 257.745 19.536 257.441 19.536C256.769 19.536 256.241 19.68 255.857 19.968C255.473 20.256 255.249 20.736 255.185 21.408H251.777ZM259.649 23.928C259.505 24.056 259.321 24.16 259.097 24.24C258.889 24.304 258.657 24.36 258.401 24.408C258.161 24.456 257.905 24.496 257.633 24.528C257.361 24.56 257.089 24.6 256.817 24.648C256.561 24.696 256.305 24.76 256.049 24.84C255.809 24.92 255.593 25.032 255.401 25.176C255.225 25.304 255.081 25.472 254.969 25.68C254.857 25.888 254.801 26.152 254.801 26.472C254.801 26.776 254.857 27.032 254.969 27.24C255.081 27.448 255.233 27.616 255.425 27.744C255.617 27.856 255.841 27.936 256.097 27.984C256.353 28.032 256.617 28.056 256.889 28.056C257.561 28.056 258.081 27.944 258.449 27.72C258.817 27.496 259.089 27.232 259.265 26.928C259.441 26.608 259.545 26.288 259.577 25.968C259.625 25.648 259.649 25.392 259.649 25.2V23.928Z" fill="white"/>
</svg>
